<svg width="42" height="35" viewBox="0 0 42 35" fill="none" xmlns="http://www.w3.org/2000/svg">
<rect width="41.6667" height="34.6667" rx="8" fill="#001510" fill-opacity="0.05"/>
<path d="M8 26.6667V23.4C8 22.7389 8.17014 22.1313 8.51042 21.5771C8.85069 21.0229 9.30278 20.6 9.86667 20.3083C11.0722 19.7056 12.2972 19.2535 13.5417 18.9521C14.7861 18.6507 16.05 18.5 17.3333 18.5C18.6167 18.5 19.8806 18.6507 21.125 18.9521C22.3694 19.2535 23.5944 19.7056 24.8 20.3083C25.3639 20.6 25.816 21.0229 26.1562 21.5771C26.4965 22.1313 26.6667 22.7389 26.6667 23.4V26.6667H8ZM29 26.6667V23.1667C29 22.3111 28.7618 21.4896 28.2854 20.7021C27.809 19.9146 27.1333 19.2389 26.2583 18.675C27.25 18.7917 28.1833 18.991 29.0583 19.2729C29.9333 19.5549 30.75 19.9 31.5083 20.3083C32.2083 20.6972 32.7431 21.1299 33.1125 21.6062C33.4819 22.0826 33.6667 22.6028 33.6667 23.1667V26.6667H29ZM17.3333 17.3333C16.05 17.3333 14.9514 16.8764 14.0375 15.9625C13.1236 15.0486 12.6667 13.95 12.6667 12.6667C12.6667 11.3833 13.1236 10.2847 14.0375 9.37083C14.9514 8.45694 16.05 8 17.3333 8C18.6167 8 19.7153 8.45694 20.6292 9.37083C21.5431 10.2847 22 11.3833 22 12.6667C22 13.95 21.5431 15.0486 20.6292 15.9625C19.7153 16.8764 18.6167 17.3333 17.3333 17.3333ZM29 12.6667C29 13.95 28.5431 15.0486 27.6292 15.9625C26.7153 16.8764 25.6167 17.3333 24.3333 17.3333C24.1194 17.3333 23.8472 17.309 23.5167 17.2604C23.1861 17.2118 22.9139 17.1583 22.7 17.1C23.225 16.4778 23.6285 15.7875 23.9104 15.0292C24.1924 14.2708 24.3333 13.4833 24.3333 12.6667C24.3333 11.85 24.1924 11.0625 23.9104 10.3042C23.6285 9.54583 23.225 8.85556 22.7 8.23333C22.9722 8.13611 23.2444 8.07292 23.5167 8.04375C23.7889 8.01458 24.0611 8 24.3333 8C25.6167 8 26.7153 8.45694 27.6292 9.37083C28.5431 10.2847 29 11.3833 29 12.6667ZM10.3333 24.3333H24.3333V23.4C24.3333 23.1861 24.2799 22.9917 24.1729 22.8167C24.066 22.6417 23.925 22.5056 23.75 22.4083C22.7 21.8833 21.6403 21.4896 20.5708 21.2271C19.5014 20.9646 18.4222 20.8333 17.3333 20.8333C16.2444 20.8333 15.1653 20.9646 14.0958 21.2271C13.0264 21.4896 11.9667 21.8833 10.9167 22.4083C10.7417 22.5056 10.6007 22.6417 10.4938 22.8167C10.3868 22.9917 10.3333 23.1861 10.3333 23.4V24.3333ZM17.3333 15C17.975 15 18.5243 14.7715 18.9812 14.3146C19.4382 13.8576 19.6667 13.3083 19.6667 12.6667C19.6667 12.025 19.4382 11.4757 18.9812 11.0187C18.5243 10.5618 17.975 10.3333 17.3333 10.3333C16.6917 10.3333 16.1424 10.5618 15.6854 11.0187C15.2285 11.4757 15 12.025 15 12.6667C15 13.3083 15.2285 13.8576 15.6854 14.3146C16.1424 14.7715 16.6917 15 17.3333 15Z" fill="#001510"/>
</svg>
