<svg width="50" height="53" viewBox="0 0 50 53" fill="none" xmlns="http://www.w3.org/2000/svg">
<path d="M0 52.5V32.5L10 28.0625V20L22.5 13.75V10H17.5V5H22.5V0H27.5V5H32.5V10H27.5V13.75L40 20V28.0625L50 32.5V52.5H27.5V42.5C27.5 41.7917 27.2604 41.1979 26.7812 40.7188C26.3021 40.2396 25.7083 40 25 40C24.2917 40 23.6979 40.2396 23.2188 40.7188C22.7396 41.1979 22.5 41.7917 22.5 42.5V52.5H0V52.5M5 47.5H17.5V42.375C17.5 40.25 18.2292 38.4479 19.6875 36.9688C21.1458 35.4896 22.9167 34.75 25 34.75C27.0833 34.75 28.8542 35.4896 30.3125 36.9688C31.7708 38.4479 32.5 40.25 32.5 42.375V47.5H45V35.5L35 31V22.625L25 17.5L15 22.625V31L5 35.5V47.5V47.5M25 31.25C26.0417 31.25 26.9271 30.8854 27.6562 30.1562C28.3854 29.4271 28.75 28.5417 28.75 27.5C28.75 26.4583 28.3854 25.5729 27.6562 24.8438C26.9271 24.1146 26.0417 23.75 25 23.75C23.9583 23.75 23.0729 24.1146 22.3438 24.8438C21.6146 25.5729 21.25 26.4583 21.25 27.5C21.25 28.5417 21.6146 29.4271 22.3438 30.1562C23.0729 30.8854 23.9583 31.25 25 31.25V31.25M25 32.5V32.5V32.5V32.5V32.5V32.5V32.5V32.5V32.5V32.5V32.5V32.5V32.5V32.5V32.5V32.5V32.5V32.5" fill="#1A1C1B"/>
</svg>
